<svg id="Capa_1" data-name="Capa 1" xmlns="http://www.w3.org/2000/svg" viewBox="0 0 358.05 123.2"><defs><style>.cls-1{fill:#1d4ef5;}.cls-2{fill:#1d88aa;}.cls-3{fill:#1d3142;}</style></defs><path class="cls-1" d="M291.87,20.45s-.59.18-1.77.63c-.6.23-1.33.53-2.19.94l-.66.32a2.55,2.55,0,0,0-.44.3l-.86.66-.94.76-.51.42-.25.22-.17.2-1.45,1.77-.38.48-.29.48-.6,1-.62,1.05-.53,1.07c-1.46,2.95-2.73,6.36-4.22,10.32s-3.13,8.44-5.2,13.49A266.33,266.33,0,0,1,252.1,91.67c-1.12,1.84-2.27,3.71-3.57,5.66-.64,1-1.34,2-2.23,3.15-.52.83-1.07,1.64-1.57,2.49-1,1.67-2,3.37-3,5.16l-1.46,2.79-.8,1.52-.43.8-.1.2-.22.34-.44.7a45,45,0,0,1-9,10.76,31.62,31.62,0,0,1-13.37,6.39,42.67,42.67,0,0,1-7.85,1c-1.36,0-2.72,0-4.11,0l-2.08-.1-1.79-.12c-2.12-.14-3.85-.3-5.62-.49l-4.85-.59a1.92,1.92,0,0,1-.15.14,9.56,9.56,0,0,1-1.27.07l-4,.12-9.16.27c-6.41.14-13.22.2-20.64,0-3-.11-6-.26-9.2-.54-1.65-.15-3.26-.31-5.23-.59-.91-.13-2.08-.33-3.25-.55l-2.12-.47-1.53-.42-.75-.24c-.27-.08-.43-.12-1-.32-.88-.32-1.76-.68-2.61-1.07l-.63-.31c-7.26,14.43,9.79-19.7,8-16.17v0l0,0,0,.09c-.06.12-.12.24-.17.36a5.7,5.7,0,0,0-.25.73,7.79,7.79,0,0,0-.32,1c0,.17-.08.34-.11.52l0,.26-.08.33a13.51,13.51,0,0,0-.23,1.37c-.06.81-.25,2.07-.28,3.19l0,.85v.43l0,.51c0,.7,0,1.4,0,2.09s0,1.37.09,2.08.05,1.67.1,2.51l.09,1.24h0s0,0-.05,0l-.21,0c-.41,0-1.15.08-2,.18s-1.82.28-2.91.49l-7.3,1.39a68.7,68.7,0,0,1-13.23,1.69,33,33,0,0,1-12.13-2.07,16.41,16.41,0,0,1-5.13-2.94l-4.51-3.69c-1.65-1.78-3.27-3.5-4.81-5.26l-1.11-1.26-.61-.77L79.69,115c-1.53-2-3-4-4.43-6-2.82-3.92-5.41-7.69-7.8-11.36-4.78-7.31-8.81-14.12-12.28-20.46A286.52,286.52,0,0,1,40.06,45.14c-.89-2.17-1.66-4.27-2.41-6.21s-1.43-3.76-2-5.47c-1.25-3.41-2.34-6.33-3.13-8.74-1-2.4-1.64-4.28-2.06-5.55s-.6-1.93-.6-1.93a5.17,5.17,0,0,1,1.84.64A17,17,0,0,1,34,19.31c.46.34,1,.73,1.5,1.18s1,1,1.52,1.53c4.44,4.61,9.81,13.56,13.94,30.5,0,0-.33-1.74-.67-4.21a70.18,70.18,0,0,1-.81-8.56c0-2.91.18-5.51,1.26-6.76s3-1.12,6,1.46c6.12,5.16,11.51,9.2,15.48,13.61a26.06,26.06,0,0,1,4.63,7.07,21,21,0,0,1,1.52,8.72A100.35,100.35,0,0,0,80.15,83.4c1,5.64,2.08,9.65,2.08,9.65s0-6.08.4-12.26S83.66,68.33,85,68s2.55-1,6.37,1.74a70.12,70.12,0,0,1,8,7.13c1.75,1.74,3.77,3.84,6,6.25l3.63,3.9,1,1c.06.1,0,.11.06.18l.11.36h0a15,15,0,0,1,.08,1.94c0,.84.13,1.8.24,2.74l.27,2.5c.07.67.08,1.11.08,1.11s.06.25.19.7a13.48,13.48,0,0,0,.68,1.82,15.59,15.59,0,0,0,3.93,5.29,14.86,14.86,0,0,0,1.81,1.32c.65.42,1.32.84,2,1.25,1.36.82,2.77,1.6,4.15,2.3a48,48,0,0,0,7.45,3.16s-1.46-1.51-3.79-3.63a91.91,91.91,0,0,1-7.85-7.84c-2.47-2.93-4.28-6-4.4-8.69a4.62,4.62,0,0,1,1.29-3.58c1-1,2.63-1.94,5.47-2.61,1.45-.33,2.91-.65,4.54-.92.78-.14,1.69-.26,2.53-.38s1.78-.2,2.85-.25a35.43,35.43,0,0,1,7.22.25c.77.11,1.48.23,2.27.4s1.75.44,2.6.7c.4.12.91.31,1.41.5s1,.4,1.47.61l.71.33.35.17.09,0c1.74-3.42-15,30-7.89,15.82l0-.06.12-.22a13.75,13.75,0,0,0,.84-1.84,20.09,20.09,0,0,0,.6-1.94c.31-.84.59-1.69.85-2.54s.47-1.69.67-2.54.3-1.6.63-2.75.51-2.11.74-3.17l.34-1.57,0-.2v0h0l0,0,.1,0c.17,0,.22.1.47.16l.65.17,3.08.7a27.11,27.11,0,0,1,4.83,1.46c1.16.52,1.81,1.08,2,1.69.38-1.2,2.73-2.06,7.39-2.61,2.34-.28,5.25-.48,8.8-.6s7.71-.16,12.77,0,7.84,2.08,8.7,4.78a6.6,6.6,0,0,1-.77,4.38c-.75,1.56-1.61,3.23-2.6,4.91-2,3.35-4.27,6.74-6.14,9.29s-3.29,4.25-3.29,4.25a28.38,28.38,0,0,0,6.71-4.32c1.15-.93,2.29-1.93,3.47-2.94a31,31,0,0,1,3.83-2.82A51.55,51.55,0,0,0,201,100c1.46-1.47,2.3-2.44,2.3-2.44a10.36,10.36,0,0,1,2-3.28c.89-1.73,1.26-3.58,1.64-4a2.36,2.36,0,0,0,.51-1.08l0-.11a.39.39,0,0,1,.07-.16L209,87c1-1.32,2.06-2.62,3.06-3.78a53.9,53.9,0,0,1,9.74-9.15l.43-.3a1.39,1.39,0,0,1,.26-.14l.44-.19a8.76,8.76,0,0,1,1-.44,5.66,5.66,0,0,1,1.62-.44,4.84,4.84,0,0,1,2.21.38c.66.2,1.16,1.86,1.54,4.21a39.51,39.51,0,0,1,.68,8.5c0,3.22,0,6.33.18,8.64.07,1.14.14,2.09.19,2.75l.09,1,.49-2.72c.31-1.73.81-4.15,1.44-7l.52-2.23c.21-.81.22-1.44.36-2.24.22-1.52.44-3.16.61-4.81A77.37,77.37,0,0,0,234.29,69c-.19-6.58,2.21-11.33,6.12-15.71s9.3-8.41,15.31-13.57c3-2.58,5-2.72,6-1.48S263.07,42.07,263,45a92.16,92.16,0,0,1-1.39,12.76,97,97,0,0,1,6.75-19.9,37.19,37.19,0,0,1,7.62-11c.72-.65,1.38-1.22,2-1.73s1.48-1,2.14-1.43,1.63-.87,2.32-1.19l.52-.23.66-.26c.47-.18.92-.33,1.33-.46l1.15-.34.51-.13.77-.17a23.44,23.44,0,0,1,2.53-.38A13.51,13.51,0,0,1,291.87,20.45Z" transform="translate(11.98 -9.4)"/><path class="cls-2" d="M250.07,12.62s-.59.18-1.78.63c-.59.23-1.33.53-2.18.93l-.67.33a2.79,2.79,0,0,0-.44.3l-.85.66-1,.76-.5.42-.26.22-.17.2-1.45,1.76-.38.49-.28.47-.6,1-.63,1.06-.52,1.07c-1.46,2.95-2.74,6.36-4.22,10.31s-3.14,8.44-5.21,13.5A266.11,266.11,0,0,1,210.3,83.84c-1.12,1.84-2.28,3.71-3.57,5.66-.64,1-1.34,2-2.24,3.15-.52.83-1.07,1.64-1.57,2.49-1,1.67-2,3.37-2.95,5.16l-1.46,2.78-.8,1.52-.43.81-.11.2L197,106l-.45.7a45.16,45.16,0,0,1-9,10.76,31.74,31.74,0,0,1-13.37,6.39,43.77,43.77,0,0,1-7.86,1c-1.35,0-2.72,0-4.1,0l-2.09-.1-1.79-.12c-2.12-.15-3.85-.31-5.62-.5l-4.84-.58c-.06,0-.1.1-.16.14a9.3,9.3,0,0,1-1.27.07l-4,.12-9.15.27c-6.41.14-13.22.2-20.64-.06-3-.1-6-.26-9.2-.53-1.65-.16-3.27-.31-5.24-.6-.91-.12-2.07-.32-3.24-.54q-1.06-.22-2.13-.48c-.49-.12-1-.27-1.52-.42l-.76-.23c-.27-.09-.42-.13-1-.32q-1.33-.48-2.61-1.08l-.64-.3c-7.26,14.43,9.79-19.71,8-16.18v0l0,0,0,.09c-.06.12-.12.24-.17.36a5.2,5.2,0,0,0-.24.73,10.24,10.24,0,0,0-.33,1c0,.18-.07.35-.1.52l0,.26-.08.34c-.1.46-.18.92-.24,1.37,0,.81-.24,2.07-.28,3.19v1.27l0,.52c0,.7,0,1.39,0,2.09s.05,1.36.1,2.08,0,1.67.1,2.5L93,121h0s0,0-.06,0l-.21,0c-.4,0-1.14.08-2,.18s-1.82.28-2.9.48L80.6,123a68.67,68.67,0,0,1-13.23,1.68,32.73,32.73,0,0,1-12.12-2.06,16.44,16.44,0,0,1-5.13-3L45.6,116c-1.65-1.79-3.26-3.51-4.81-5.26l-1.11-1.26-.6-.77-1.19-1.53c-1.53-2-3-4-4.44-6-2.82-3.91-5.4-7.69-7.8-11.35-4.77-7.32-8.81-14.12-12.27-20.46A290.34,290.34,0,0,1-1.75,37.31C-2.64,35.13-3.4,33-4.15,31.1s-1.43-3.76-2-5.48c-1.25-3.4-2.35-6.32-3.14-8.73-.95-2.4-1.63-4.28-2.06-5.55S-12,9.4-12,9.4a5.39,5.39,0,0,1,1.85.65,16,16,0,0,1,2.31,1.43,18.62,18.62,0,0,1,1.5,1.18c.49.44,1,.95,1.52,1.52C-.35,18.79,5,27.74,9.14,44.69c0,0-.33-1.74-.67-4.22a70.26,70.26,0,0,1-.8-8.56c0-2.9.18-5.5,1.25-6.75s3-1.12,6,1.46c6.13,5.15,11.51,9.2,15.49,13.61a25.87,25.87,0,0,1,4.62,7.07A21,21,0,0,1,36.58,56a100.43,100.43,0,0,0,1.77,19.55c1,5.64,2.07,9.64,2.07,9.64s0-6.07.4-12.25,1-12.47,2.37-12.84,2.54-1,6.37,1.73a72.51,72.51,0,0,1,8,7.14c1.76,1.73,3.78,3.84,6,6.25l3.63,3.9,1,1c.06.09,0,.11.07.17l.11.37h0a17.68,17.68,0,0,1,.07,1.94c0,.83.13,1.8.24,2.74L69,87.9c.06.67.08,1.11.08,1.11s0,.25.18.69a17,17,0,0,0,.68,1.83,15.74,15.74,0,0,0,3.94,5.29,14,14,0,0,0,1.8,1.31q1,.65,2,1.26c1.36.82,2.77,1.59,4.15,2.3a48.1,48.1,0,0,0,7.46,3.16s-1.47-1.52-3.8-3.64a90.44,90.44,0,0,1-7.84-7.84c-2.47-2.92-4.28-6-4.41-8.68a4.64,4.64,0,0,1,1.29-3.59c1-1,2.63-1.94,5.47-2.61,1.45-.33,2.91-.64,4.55-.92.78-.14,1.69-.26,2.52-.37s1.78-.2,2.86-.26a36.07,36.07,0,0,1,7.21.25c.77.12,1.49.24,2.27.4s1.76.45,2.61.71c.39.12.91.3,1.41.5s1,.4,1.46.61l.72.33.35.17.09,0c1.74-3.43-15,30-7.89,15.82l0-.06.13-.22a17,17,0,0,0,.84-1.85c.25-.64.4-1.23.6-1.93s.59-1.69.84-2.54.48-1.7.68-2.55.3-1.59.62-2.74.52-2.12.75-3.17l.33-1.58,0-.19s0,0,0,0h0l0,0,.1,0c.16,0,.22.1.46.15l.66.18,3.08.7a28.36,28.36,0,0,1,4.83,1.45c1.15.52,1.8,1.09,2,1.7.37-1.2,2.72-2.06,7.39-2.62,2.33-.27,5.24-.47,8.8-.59s7.71-.16,12.76,0,7.85,2.07,8.71,4.77a6.62,6.62,0,0,1-.77,4.39c-.75,1.56-1.62,3.23-2.61,4.9a110.23,110.23,0,0,1-6.14,9.29c-1.86,2.55-3.28,4.26-3.28,4.26a28.65,28.65,0,0,0,6.7-4.32c1.15-.94,2.3-1.93,3.47-2.94a32.24,32.24,0,0,1,3.84-2.83,50.49,50.49,0,0,0,6.23-5.25c1.47-1.47,2.31-2.44,2.31-2.44a10.46,10.46,0,0,1,2.05-3.29c.88-1.72,1.26-3.57,1.64-4a2.35,2.35,0,0,0,.5-1.09l0-.11a.53.53,0,0,1,.08-.15l1.43-1.91c1-1.31,2.07-2.61,3.07-3.78A54.15,54.15,0,0,1,180,66.25l.43-.3a1.8,1.8,0,0,1,.26-.14l.44-.19a7.93,7.93,0,0,1,1-.44,5.3,5.3,0,0,1,1.61-.44,4.81,4.81,0,0,1,2.21.38c.66.2,1.16,1.86,1.55,4.21a40.16,40.16,0,0,1,.67,8.5c0,3.21,0,6.33.19,8.63.06,1.15.13,2.1.19,2.76l.08,1s.19-1,.5-2.72.8-4.15,1.44-7l.51-2.23c.21-.8.22-1.43.37-2.23.21-1.52.43-3.16.6-4.81a77.54,77.54,0,0,0,.46-10.08c-.19-6.57,2.21-11.32,6.11-15.71s9.31-8.4,15.32-13.56c3-2.58,4.94-2.73,6-1.49s1.34,3.85,1.31,6.75a91.41,91.41,0,0,1-1.4,12.76A98.3,98.3,0,0,1,226.59,30a37.32,37.32,0,0,1,7.62-11c.72-.65,1.39-1.22,2-1.73s1.48-1,2.14-1.43S240,15,240.7,14.67l.52-.23c.14-.07.46-.19.67-.27l1.32-.45c.42-.14.8-.25,1.16-.34l.51-.13.76-.17a23.56,23.56,0,0,1,2.54-.38A13.51,13.51,0,0,1,250.07,12.62Z" transform="translate(11.98 -9.4)"/><path class="cls-3" d="M346.07,14.62s-.74.22-2.21.8l-1.23.53-.7.32-.37.19a1.14,1.14,0,0,0-.31.18c-.58.43-1.24.94-2,1.54-2.65,2.37-4.31,5.37-5.84,8.9s-3,7.69-4.82,12.53-4,10.37-6.73,16.6S315.77,69.38,311.55,77c-2.12,3.82-4.43,7.81-7.08,12-.67,1.06-1.36,2.13-2.1,3.24l-.59.85c-.21.29-.4.57-.66.9-.57.71-.81,1.13-1.16,1.64-1.35,2-2.7,4-4.08,6.09L293.7,105l-1.21,1.76-1.48,2-.19.25-.3.35-.64.72-1.31,1.42c-.88,1-1.86,1.82-2.83,2.72s-2.07,1.66-3.15,2.46-2.28,1.47-3.5,2.08a42.67,42.67,0,0,1-7.81,3c-1.34.36-2.78.71-4.09,1l-3,.61c-1,.21-1.9.34-2.83.5l-2.75.45-5.25.74-2.59.33-1.3.15-.66.08-.34,0-.45,0L245,126l-2.79.19c-3.69.24-7.39.4-11.2.5-7.63.18-15.56.15-24.28-.39-3-.19-5.95-.43-9.17-.83-1.61-.19-3.32-.44-5.34-.81l-1.61-.32-2-.48-.62-.18-.71-.21-1.41-.45c-.72-.25-1.59-.6-2.37-.94l-1.17-.55c-1.8,3.5,15.31-30.67,8.07-16.19l0,0,0,0-.05.09-.08.17c-.81,1.74-1.5,5.36-1.46,10.68,0,.68,0,1.36,0,2,0,.36.05.63.05,1.06l0,1.23.06,1.23L189,123s0,0,0,0l-.18,0c-.07,0-.23,0-.33,0a20,20,0,0,0-2.14.24c-.85.12-1.88.32-2.92.51l-7.57,1.47a66.07,66.07,0,0,1-13,1.55A32.54,32.54,0,0,1,151,124.62a16.32,16.32,0,0,1-5-2.93l-4.44-3.62c-1.66-1.79-3.28-3.51-4.83-5.27l-1.11-1.26-.61-.77-1.19-1.52c-1.53-2-3-4-4.44-6-2.82-3.91-5.41-7.69-7.81-11.35-4.78-7.31-8.81-14.12-12.27-20.46a285,285,0,0,1-15.1-32.1c-.89-2.18-1.65-4.28-2.39-6.22s-1.43-3.77-2-5.49c-1.25-3.41-2.33-6.34-3.11-8.75-1-2.41-1.63-4.29-2-5.57S84,11.4,84,11.4a5.31,5.31,0,0,1,1.83.64,15.29,15.29,0,0,1,2.31,1.42c.45.33,1,.72,1.48,1.17s1,.95,1.51,1.52c4.42,4.58,9.74,13.49,13.8,30.36,0,0-.33-1.74-.65-4.2a68,68,0,0,1-.78-8.53c0-2.9.19-5.49,1.26-6.74s3-1.13,6,1.43c6.09,5.12,11.43,9.13,15.39,13.51a25.38,25.38,0,0,1,4.58,7,20.61,20.61,0,0,1,1.49,8.68,100.39,100.39,0,0,0,1.7,19.47c1,5.62,2,9.61,2,9.61s.06-6.06.44-12.21,1.07-12.43,2.4-12.81,2.54-1,6.34,1.71a69.31,69.31,0,0,1,8,7.08q2.63,2.61,6,6.23l3.61,3.88,1,1,.49.54a.41.41,0,0,1,0,.08c0,.1.06.22.1.35a.43.43,0,0,1,0,.11c.08.37,0,1.17,0,2s.07,1.82.14,2.74l.18,2.44c0,.65,0,1.07,0,1.07s0,.26.16.71a13.09,13.09,0,0,0,.6,1.85A15.27,15.27,0,0,0,169.14,99a15.1,15.1,0,0,0,1.63,1.37c.64.43,1.3.86,2,1.27,1.35.83,2.75,1.6,4.13,2.31A40.71,40.71,0,0,0,184.4,107s-1.54-1.47-3.88-3.57a80,80,0,0,1-7.82-7.82c-2.44-2.93-4.2-6.06-4.34-8.7a4.72,4.72,0,0,1,1.22-3.57c1-1,2.53-1.91,5.24-2.57A66.37,66.37,0,0,1,184,79.12a40.89,40.89,0,0,1,6.16-.18c.63,0,1.26.09,1.88.15s1.44.19,2.13.31l1.08.2,1.26.31,1.25.36c.4.12.79.24,1.3.44.95.36,1.89.76,2.78,1.2L202,82c-3.46,6.94,7.8-15.5-7.75,15.56l0,0,.06-.12.25-.47c.17-.32.32-.64.46-1a17.59,17.59,0,0,0,.72-2l.14-.5.07-.25.12-.32.47-1.3c.29-.86.56-1.73.8-2.59s.47-1.74.66-2.6l.14-.66.22-.8.43-1.59.4-1.58.17-.72h0v0s.05,0,.13.07.25.11.49.17l.63.2.72.2,1.44.39a28.05,28.05,0,0,1,4.64,1.6c1.1.56,1.73,1.13,1.85,1.75.39-1.19,2.72-2,7.27-2.44s11.38-.58,20.58-.5c4.59,0,6.61,1.75,7.17,4.34S244,93,242.38,96.43a71,71,0,0,1-8.88,13.79c4.44-1.84,9.68-6.83,13.42-11.46,1.78-2.33,3.46-4.56,4.56-6.19s1.76-2.69,1.76-2.69a8.17,8.17,0,0,1,1.82-3.65,11.46,11.46,0,0,1,1.44-1.43,11.16,11.16,0,0,1,1.87-1.37,10.51,10.51,0,0,1,1.16-.61c.37-.2.72-.39,1.11-.56l.61-.24.32-.11.16,0c.07,0,.11,0,.11,0a1.18,1.18,0,0,1,.25-.25,1.41,1.41,0,0,0,.45-.51,1.65,1.65,0,0,0,.23-.43l0-.1v0l.13-.15.33-.36,1.32-1.42L266.06,77l1.46-1.49c1-1,1.85-1.84,2.73-2.65s1.66-1.52,2.41-2.15c1.5-1.25,2.8-2.24,3.82-2.93l.46-.23.53-.28c.34-.17.67-.33,1-.47a5.82,5.82,0,0,1,1.62-.44,4.93,4.93,0,0,1,2.2.38c.66.2,1.17,1.85,1.55,4.21.21,1.16.36,2.53.53,3.92.06.73.2,1.37.27,2.11s0,1.57,0,2.36v4.56c0,1.45,0,2.79,0,3.95l.07,3.79s.24-1,.65-2.68.95-4.12,1.6-6.91c.15-.7.33-1.46.47-2.19l.32-2.21c.22-1.53.43-3.15.6-4.81a78.65,78.65,0,0,0,.42-10c-.21-6.56,2.17-11.28,6-15.63s9.25-8.34,15.22-13.46c3-2.57,4.92-2.71,6-1.46s1.35,3.84,1.33,6.73A91,91,0,0,1,316,51.72,97,97,0,0,1,322.7,31.9,36.91,36.91,0,0,1,330.27,21c.72-.65,1.37-1.21,2-1.72s1.47-1,2.13-1.43,1.62-.86,2.31-1.18l.51-.23.68-.26c.47-.18.91-.33,1.32-.46s.79-.24,1.14-.33l.51-.13.78-.17a22.44,22.44,0,0,1,2.51-.37A13.36,13.36,0,0,1,346.07,14.62Z" transform="translate(11.98 -9.4)"/></svg>